<!-- icon666.com - MILLIONS vector ICONS FREE --><svg clip-rule="evenodd" fill-rule="evenodd" stroke-linejoin="round" stroke-miterlimit="2" viewBox="0 0 48 48" xmlns="http://www.w3.org/2000/svg"><g transform="translate(-144 -144)"><g id="Icon"><path d="m175 189h-22.438c-.308 0-.599-.142-.789-.385-.189-.242-.256-.559-.182-.857l1.191-4.763h22.218zm8.218-6.005 1.191 4.762c.074.299.007.616-.182.858-.19.243-.481.385-.789.385h-6.438v-6.005zm-23.784-7.995h-3.872c-.459 0-.859.312-.971.757l-1.309 5.238h11.446c-1.49-1.49-3.428-3.571-5.294-5.995zm17.132 0c-1.866 2.425-3.804 4.505-5.295 5.995h11.447l-1.309-5.238c-.112-.445-.512-.757-.971-.757zm-8.566-28c7.175 0 13 5.825 13 13 0 3.293-1.413 6.702-3.293 9.82-2.907 4.822-6.957 8.947-9.03 10.909-.382.354-.972.354-1.355.001-2.072-1.963-6.122-6.088-9.029-10.91-1.88-3.118-3.293-6.527-3.293-9.82 0-7.175 5.825-13 13-13zm0 6c-3.863 0-7 3.137-7 7s3.137 7 7 7 7-3.137 7-7-3.137-7-7-7z"></path></g></g></svg>